<!DOCTYPE svg PUBLIC "-//W3C//DTD SVG 1.1//EN" "http://www.w3.org/Graphics/SVG/1.1/DTD/svg11.dtd">
<!-- Uploaded to: SVG Repo, www.svgrepo.com, Transformed by: SVG Repo Mixer Tools -->
<svg height="800px" width="800px" version="1.1" id="Layer_1" xmlns="http://www.w3.org/2000/svg" xmlns:xlink="http://www.w3.org/1999/xlink" viewBox="0 0 512.001 512.001" xml:space="preserve" fill="#000000" transform="rotate(45)">
<g id="SVGRepo_bgCarrier" stroke-width="0"/>
<g id="SVGRepo_tracerCarrier" stroke-linecap="round" stroke-linejoin="round"/>
<g id="SVGRepo_iconCarrier"> <path style="fill:#e879f9;" d="M255.999,497.96c0,0,142.634-56.465,142.634-145.565c0-9.076-0.835-17.878-2.451-26.351 c-4.949-26.163-17.209-49.206-34.608-67.424c-26.082-27.331-63.721-32.679-105.573-32.679c-41.853,0-79.493,5.347-105.575,32.679 c-17.399,18.217-29.659,41.261-34.608,67.424c-1.616,8.473-2.453,17.275-2.453,26.351 C113.365,444.138,255.999,497.96,255.999,497.96z"/> <path style="fill:#7BD36A;" d="M197.334,232.022c17.892-4.746,37.752-6.081,58.665-6.081c20.557,0,40.093,1.299,57.747,5.849 c27.268-12.49,68.589-35.368,65.384-59.335c-4.211-31.476-32.915-19.786-37.225-32.717c-4.312-12.931,22.373-37.28,9.694-55.649 c-14.971-21.69-37.916-9.858-49.101-18.911c-8.746-7.079-17.714-51.137-46.811-51.137c-0.166,0-0.803,0-0.97,0 c-29.096,0-38.065,44.058-46.81,51.135c-11.185,9.053-34.131-2.779-49.101,18.911c-12.68,18.369,15.605,42.718,11.294,55.649 c-4.312,12.931-33.016,1.241-37.227,32.717C129.65,196.548,170.521,219.586,197.334,232.022z"/> <path d="M217.51,431.384c-2.734,0-5.495-0.796-7.92-2.457c-37.763-25.858-56.912-51.607-56.912-76.532 c0-6.488,0.591-12.877,1.758-18.986c3.402-17.99,11.847-34.474,24.421-47.639c5.356-5.611,14.245-5.813,19.852-0.458 c5.608,5.355,5.813,14.244,0.458,19.852c-8.819,9.234-14.747,20.814-17.142,33.487c-0.841,4.403-1.264,9.02-1.264,13.746 c0,14.462,16.291,33.912,44.695,53.362c6.4,4.381,8.034,13.119,3.653,19.516C226.387,429.248,221.986,431.384,217.51,431.384z"/> <path d="M255.506,453.521c-0.911,0-1.839-0.098-2.736-0.281c-0.9-0.183-1.785-0.448-2.626-0.799 c-0.856-0.351-1.671-0.788-2.429-1.292c-0.772-0.505-1.488-1.095-2.134-1.741c-0.646-0.646-1.236-1.376-1.741-2.136 c-0.505-0.76-0.941-1.573-1.292-2.428c-0.351-0.844-0.618-1.727-0.8-2.626c-0.183-0.899-0.281-1.825-0.281-2.738 s0.098-1.839,0.281-2.752c0.183-0.885,0.449-1.769,0.8-2.626c0.351-0.842,0.786-1.657,1.292-2.415 c0.505-0.772,1.095-1.49,1.741-2.136c0.646-0.646,1.362-1.236,2.134-1.755c0.758-0.504,1.573-0.941,2.429-1.292 c0.842-0.351,1.726-0.616,2.626-0.799c1.811-0.366,3.663-0.366,5.488,0c0.886,0.183,1.771,0.448,2.626,0.799 c0.844,0.351,1.658,0.788,2.416,1.292c0.772,0.52,1.488,1.109,2.134,1.755s1.236,1.363,1.755,2.136 c0.491,0.758,0.927,1.573,1.278,2.415c0.351,0.856,0.632,1.741,0.8,2.626c0.183,0.913,0.279,1.839,0.279,2.752 s-0.097,1.841-0.279,2.738c-0.168,0.899-0.449,1.783-0.8,2.626c-0.351,0.855-0.788,1.669-1.278,2.428 c-0.52,0.758-1.109,1.49-1.755,2.136c-0.646,0.646-1.362,1.236-2.134,1.741c-0.758,0.504-1.573,0.941-2.416,1.292 c-0.855,0.351-1.74,0.616-2.626,0.799C257.347,453.422,256.421,453.521,255.506,453.521z"/> <path d="M255.999,105.92c-0.913,0-1.841-0.097-2.738-0.279c-0.899-0.184-1.783-0.449-2.626-0.8 c-0.856-0.351-1.669-0.788-2.428-1.292c-0.774-0.505-1.49-1.095-2.136-1.741c-0.646-0.646-1.236-1.362-1.741-2.134 c-0.52-0.758-0.941-1.573-1.292-2.429c-0.351-0.842-0.632-1.726-0.799-2.626c-0.184-0.899-0.281-1.825-0.281-2.738 c0-0.911,0.097-1.839,0.281-2.752c0.167-0.885,0.448-1.769,0.799-2.626c0.351-0.842,0.772-1.657,1.292-2.415 c0.505-0.772,1.095-1.488,1.741-2.134c0.646-0.646,1.362-1.236,2.136-1.755c0.758-0.505,1.571-0.941,2.428-1.292 c0.844-0.351,1.727-0.618,2.626-0.8c1.811-0.365,3.665-0.365,5.476,0c0.899,0.183,1.783,0.449,2.624,0.8 c0.856,0.351,1.671,0.786,2.429,1.292c0.772,0.52,1.488,1.109,2.134,1.755c0.647,0.646,1.237,1.362,1.741,2.134 c0.505,0.758,0.941,1.573,1.292,2.415c0.351,0.856,0.632,1.741,0.8,2.626c0.183,0.913,0.281,1.841,0.281,2.752 c0,0.913-0.098,1.841-0.281,2.738c-0.168,0.9-0.449,1.785-0.8,2.626c-0.351,0.856-0.786,1.671-1.292,2.429 c-0.504,0.772-1.094,1.488-1.741,2.134c-0.646,0.646-1.362,1.236-2.134,1.741c-0.758,0.504-1.573,0.941-2.429,1.292 c-0.842,0.351-1.726,0.616-2.624,0.8C257.839,105.823,256.911,105.92,255.999,105.92z"/> <path d="M409.978,323.434c-5.317-28.112-18.545-53.879-38.248-74.507c-7.374-7.728-15.525-13.857-24.188-18.734 c33.304-19.462,48.247-39.09,45.504-59.599c-3.853-28.794-24.68-34.078-34.691-36.618c-0.612-0.156-1.297-0.329-1.97-0.508 c0.976-2.52,2.536-5.775,3.705-8.218c6.033-12.596,15.15-31.628,3.064-49.137c-13.044-18.897-30.844-19.963-42.621-20.666 c-2.974-0.178-7.361-0.439-8.9-1.039c-1.2-1.765-3.344-6.178-4.949-9.483C298.522,28.122,284.867,0,255.686,0h-0.97 c-29.179,0-42.836,28.123-50.994,44.925c-1.598,3.291-3.729,7.68-4.934,9.459c-1.613,0.623-5.962,0.885-8.916,1.061 c-11.779,0.703-29.578,1.769-42.621,20.666c-12.238,17.726-2.332,36.811,4.222,49.439c1.226,2.363,2.85,5.493,3.921,7.975 c-0.601,0.157-1.202,0.312-1.747,0.449c-10.011,2.54-30.84,7.822-34.691,36.618c-2.717,20.314,12.434,40.379,45.07,59.842 c-8.502,4.837-16.503,10.888-23.754,18.487c-19.706,20.634-32.933,46.401-38.246,74.49c-1.792,9.396-2.701,19.148-2.701,28.984 c0,100.3,145.524,156.363,151.719,158.701c1.598,0.602,3.277,0.904,4.956,0.904c1.755,0,3.509-0.329,5.168-0.986 c6.186-2.449,151.507-61.099,151.507-158.619C412.674,342.564,411.766,332.813,409.978,323.434z M365.212,174.317 c0.838,6.254-9.545,22.097-52.955,42.677c-3.168-0.706-6.445-1.332-9.838-1.888c-0.51-0.084-1.021-0.164-1.53-0.244 c-0.472-0.073-0.945-0.146-1.421-0.216c-4.239-0.635-8.494-1.139-12.747-1.523l55.033-55.033c3.38,1.495,6.821,2.376,9.696,3.106 C360.494,163.487,363.879,164.347,365.212,174.317z M170.361,92.063c5.036-7.295,10.73-7.962,21.188-8.587 c8.131-0.486,17.347-1.036,25.194-7.387c5.046-4.086,8.219-10.622,12.238-18.898c7.735-15.926,15.009-29.11,25.735-29.11h0.97 c10.727,0,18,13.184,25.735,29.109c4.018,8.277,7.193,14.814,12.242,18.901c7.843,6.348,17.059,6.899,25.19,7.385 c10.46,0.625,16.154,1.292,21.19,8.587c2.628,3.808-0.681,11.454-5.281,21.055c-3.019,6.303-6.099,12.742-7.075,19.321 l-57.649,57.649v-56.089c0-7.753-6.287-14.04-14.04-14.04c-7.753,0-14.04,6.287-14.04,14.04v56.088l-57.722-57.722 c-1.104-6.752-4.503-13.322-7.84-19.751C171.48,103.141,167.914,95.611,170.361,92.063z M198.818,217.195 c-42.701-20.533-52.879-36.523-52.028-42.88c1.332-9.97,4.716-10.828,13.762-13.122c2.875-0.73,6.315-1.609,9.695-3.103l55.03,55.03 c-4.187,0.379-8.375,0.873-12.549,1.494c-0.803,0.118-1.601,0.237-2.39,0.364c-0.161,0.025-0.322,0.052-0.482,0.079 C206.032,215.677,202.355,216.385,198.818,217.195z M255.886,482.754c-24.429-10.334-128.48-58.585-128.48-130.359 c0-8.073,0.741-16.055,2.209-23.742c4.306-22.769,15.013-43.634,30.969-60.342c11.065-11.596,24.819-18.532,39.941-22.637 c0.136-0.032,0.275-0.045,0.41-0.081c14.435-3.829,31.932-5.612,55.065-5.612c22.702,0,39.938,1.719,54.243,5.406 c0.268,0.069,0.539,0.119,0.809,0.173c15.29,4.091,29.199,11.051,40.369,22.758c15.951,16.703,26.659,37.565,30.97,60.354 c1.462,7.67,2.203,15.651,2.203,23.723C384.593,422.033,280.308,472.01,255.886,482.754z"/> </g>
</svg>